<svg width="0" height="0" viewBox="0 0 60 60" fill="none" xmlns="http://www.w3.org/2000/svg">
<mask id="mask0_9890_10124" style="mask-type:alpha" maskUnits="userSpaceOnUse" x="9" y="6" width="42" height="48">
<path d="M47.3645 53.4016H12.3761C10.5115 53.4016 9 51.9049 9 50.0587V9.94442C9 8.09821 10.5115 6.60156 12.3761 6.60156H35.0878L50.7405 22.1003V50.0587C50.7405 51.9049 49.229 53.4016 47.3645 53.4016Z" fill="url(#paint0_linear_9890_10124)"/>
</mask>
<g mask="url(#mask0_9890_10124)">
<path d="M47.3645 53.4016H12.3761C10.5115 53.4016 9 51.9049 9 50.0587V9.94442C9 8.09821 10.5115 6.60156 12.3761 6.60156H35.0878L50.7405 22.1003V50.0587C50.7405 51.9049 49.229 53.4016 47.3645 53.4016Z" fill="url(#paint1_linear_9890_10124)"/>
<path d="M18.5477 39.6341C18.3942 39.6341 18.2649 39.582 18.1598 39.478C18.0547 39.374 18.0022 39.2459 18.0022 39.0939V31.7475C18.0022 31.5954 18.0547 31.4674 18.1598 31.3634C18.2649 31.2513 18.3942 31.1953 18.5477 31.1953H21.3118C22.0796 31.1953 22.706 31.3234 23.1909 31.5794C23.6758 31.8355 24.0234 32.1636 24.2335 32.5638C24.4436 32.9639 24.5487 33.396 24.5487 33.8602C24.5487 34.3243 24.4436 34.7565 24.2335 35.1566C24.0234 35.5567 23.6758 35.8848 23.1909 36.1409C22.706 36.397 22.0796 36.5251 21.3118 36.5251H19.1054V39.0939C19.1054 39.2459 19.0488 39.374 18.9357 39.478C18.8306 39.582 18.7013 39.6341 18.5477 39.6341ZM21.2027 35.4927C22.0271 35.4927 22.605 35.3367 22.9363 35.0246C23.2758 34.7125 23.4455 34.3243 23.4455 33.8602C23.4455 33.396 23.2758 33.0079 22.9363 32.6958C22.605 32.3837 22.0271 32.2276 21.2027 32.2276H19.1054V35.4927H21.2027Z" fill="white"/>
<path d="M27.5416 39.574C27.3881 39.574 27.2587 39.522 27.1537 39.418C27.0486 39.314 26.9961 39.1859 26.9961 39.0339V31.7475C26.9961 31.5954 27.0486 31.4674 27.1537 31.3634C27.2587 31.2513 27.3881 31.1953 27.5416 31.1953H29.9784C30.8997 31.1953 31.6797 31.3994 32.3182 31.8075C32.9647 32.2076 33.4497 32.7278 33.7729 33.368C34.0962 34.0082 34.2579 34.6804 34.2579 35.3847C34.2579 36.0889 34.0962 36.7611 33.7729 37.4013C33.4497 38.0415 32.9647 38.5657 32.3182 38.9739C31.6797 39.374 30.8997 39.574 29.9784 39.574H27.5416ZM29.845 38.5537C30.5078 38.5537 31.0897 38.4217 31.5908 38.1576C32.0919 37.8855 32.4798 37.5134 32.7546 37.0412C33.0294 36.5611 33.1668 36.0089 33.1668 35.3847C33.1668 34.7605 33.0294 34.2123 32.7546 33.7401C32.4798 33.26 32.0919 32.8879 31.5908 32.6238C31.0897 32.3517 30.5078 32.2156 29.845 32.2156H28.0993V38.5537H29.845Z" fill="white"/>
<path d="M37.4945 39.6341C37.3409 39.6341 37.2116 39.582 37.1065 39.478C37.0015 39.374 36.9489 39.2459 36.9489 39.0939V31.7475C36.9489 31.5954 37.0015 31.4674 37.1065 31.3634C37.2116 31.2513 37.3409 31.1953 37.4945 31.1953H42.2104C42.3559 31.1953 42.4771 31.2473 42.5741 31.3514C42.6791 31.4474 42.7317 31.5674 42.7317 31.7115C42.7317 31.8555 42.6791 31.9756 42.5741 32.0716C42.4771 32.1676 42.3559 32.2156 42.2104 32.2156H38.0521V34.8685H41.7861C41.9316 34.8685 42.0528 34.9205 42.1498 35.0246C42.2548 35.1206 42.3074 35.2406 42.3074 35.3847C42.3074 35.5287 42.2548 35.6488 42.1498 35.7448C42.0528 35.8408 41.9316 35.8888 41.7861 35.8888H38.0521V39.0939C38.0521 39.2459 37.9956 39.374 37.8824 39.478C37.7773 39.582 37.648 39.6341 37.4945 39.6341Z" fill="white"/>
<path fill-rule="evenodd" clip-rule="evenodd" d="M22.7262 34.8023L22.7275 34.8011C23.0036 34.5473 23.1386 34.2402 23.1386 33.8594C23.1386 33.4786 23.0036 33.1715 22.7275 32.9177L22.7262 32.9165L22.7248 32.9152C22.4816 32.6862 22.0056 32.5308 21.2027 32.5308H19.4124V35.188H21.2027C22.0056 35.188 22.4816 35.0326 22.7248 34.8036L22.7262 34.8023ZM19.1054 35.4919V32.2269H21.2027C22.0271 32.2269 22.605 32.3829 22.9364 32.695C23.2758 33.0071 23.4455 33.3952 23.4455 33.8594C23.4455 34.3235 23.2758 34.7117 22.9364 35.0238C22.605 35.3359 22.0271 35.4919 21.2027 35.4919H19.1054ZM18.5478 39.9372C18.3159 39.9372 18.1075 39.8552 17.9428 39.6921C17.7781 39.529 17.6953 39.3227 17.6953 39.0931V31.7467C17.6953 31.5189 17.7767 31.3142 17.9388 31.1517C18.101 30.9808 18.3102 30.8906 18.5478 30.8906H21.3119C22.1111 30.8906 22.7919 31.0235 23.3354 31.3105C23.8635 31.5894 24.2616 31.9578 24.5058 32.4228C24.7394 32.8675 24.8557 33.3479 24.8557 33.8594C24.8557 34.3709 24.7394 34.8513 24.5058 35.296C24.2616 35.761 23.8635 36.1294 23.3354 36.4083C22.7919 36.6953 22.1111 36.8282 21.3119 36.8282H19.4124V39.0931C19.4124 39.3283 19.3213 39.5355 19.1487 39.6961C18.9846 39.8566 18.7778 39.9372 18.5478 39.9372ZM18.9357 39.4772C19.0489 39.3732 19.1054 39.2452 19.1054 39.0931V36.5243H21.3119C22.0797 36.5243 22.706 36.3962 23.1909 36.1401C23.6759 35.8841 24.0234 35.5559 24.2335 35.1558C24.4437 34.7557 24.5487 34.3235 24.5487 33.8594C24.5487 33.3952 24.4437 32.9631 24.2335 32.563C24.0234 32.1628 23.6759 31.8347 23.1909 31.5786C22.706 31.3226 22.0797 31.1945 21.3119 31.1945H18.5478C18.3942 31.1945 18.2649 31.2505 18.1598 31.3626C18.0548 31.4666 18.0022 31.5947 18.0022 31.7467V39.0931C18.0022 39.2452 18.0548 39.3732 18.1598 39.4772C18.2649 39.5813 18.3942 39.6333 18.5478 39.6333C18.7013 39.6333 18.8306 39.5813 18.9357 39.4772ZM32.4831 39.2293L32.4823 39.2299C31.7849 39.6669 30.9451 39.8772 29.9784 39.8772H27.5416C27.3097 39.8772 27.1014 39.7952 26.9367 39.6321C26.7719 39.469 26.6892 39.2627 26.6892 39.0331V31.7467C26.6892 31.5189 26.7706 31.3142 26.9326 31.1517C27.0949 30.9808 27.3041 30.8906 27.5416 30.8906H29.9784C30.9453 30.8906 31.7854 31.105 32.4827 31.5502C33.1735 31.9781 33.6978 32.539 34.0475 33.2313C34.3917 33.913 34.5648 34.6317 34.5648 35.3839C34.5648 36.1361 34.3917 36.8548 34.0475 37.5365C33.6978 38.2289 33.1736 38.7935 32.4831 39.2293ZM32.3182 31.8067C31.6797 31.3986 30.8998 31.1945 29.9784 31.1945H27.5416C27.3881 31.1945 27.2588 31.2505 27.1537 31.3626C27.0486 31.4666 26.9961 31.5947 26.9961 31.7467V39.0331C26.9961 39.1851 27.0486 39.3132 27.1537 39.4172C27.2588 39.5212 27.3881 39.5733 27.5416 39.5733H29.9784C30.8998 39.5733 31.6797 39.3732 32.3182 38.9731C32.9647 38.5649 33.4497 38.0408 33.7729 37.4006C34.0962 36.7603 34.2579 36.0881 34.2579 35.3839C34.2579 34.6797 34.0962 34.0074 33.7729 33.3672C33.4497 32.727 32.9647 32.2069 32.3182 31.8067ZM32.4881 33.8901L32.4876 33.8892C32.2421 33.4602 31.8972 33.1287 31.4466 32.8913L31.4449 32.8904L31.4432 32.8894C30.9941 32.6456 30.4645 32.5188 29.845 32.5188H28.4062V38.249H29.845C30.4652 38.249 30.9954 38.1259 31.4449 37.8894C31.8975 37.6433 32.2429 37.3106 32.4882 36.8896C32.7331 36.4611 32.8599 35.9621 32.8599 35.3839C32.8599 34.8051 32.7329 34.3107 32.4887 33.8911L32.4881 33.8901ZM31.5908 38.1568C31.0897 38.4209 30.5078 38.5529 29.845 38.5529H28.0993V32.2149H29.845C30.5078 32.2149 31.0897 32.3509 31.5908 32.623C32.0919 32.8871 32.4798 33.2592 32.7546 33.7394C33.0294 34.2115 33.1668 34.7597 33.1668 35.3839C33.1668 36.0081 33.0294 36.5603 32.7546 37.0404C32.4798 37.5126 32.0919 37.8847 31.5908 38.1568ZM37.4945 39.9372C37.2626 39.9372 37.0542 39.8552 36.8895 39.6921C36.7248 39.529 36.642 39.3227 36.642 39.0931V31.7467C36.642 31.5189 36.7234 31.3142 36.8855 31.1517C37.0477 30.9808 37.2569 30.8906 37.4945 30.8906H42.2104C42.4357 30.8906 42.6361 30.9738 42.7912 31.1356C42.9546 31.2891 43.0386 31.4875 43.0386 31.7107C43.0386 31.9359 42.953 32.1358 42.7867 32.29C42.6291 32.4438 42.4298 32.5188 42.2104 32.5188H38.3591V34.5638H41.7861C42.0114 34.5638 42.2118 34.647 42.3669 34.8088C42.5303 34.9623 42.6143 35.1607 42.6143 35.3839C42.6143 35.6091 42.5287 35.8091 42.3624 35.9632C42.2048 36.117 42.0054 36.192 41.7861 36.192H38.3591V39.0931C38.3591 39.3283 38.268 39.5355 38.0954 39.6961C37.9313 39.8566 37.7245 39.9372 37.4945 39.9372ZM37.8824 39.4772C37.9956 39.3732 38.0521 39.2452 38.0521 39.0931V35.8881H41.7861C41.9315 35.8881 42.0528 35.84 42.1498 35.744C42.2548 35.648 42.3074 35.5279 42.3074 35.3839C42.3074 35.2398 42.2548 35.1198 42.1498 35.0238C42.0528 34.9197 41.9315 34.8677 41.7861 34.8677H38.0521V32.2149H42.2104C42.3559 32.2149 42.4771 32.1668 42.5741 32.0708C42.6791 31.9748 42.7317 31.8547 42.7317 31.7107C42.7317 31.5666 42.6791 31.4466 42.5741 31.3506C42.4771 31.2465 42.3559 31.1945 42.2104 31.1945H37.4945C37.3409 31.1945 37.2116 31.2505 37.1065 31.3626C37.0015 31.4666 36.9489 31.5947 36.9489 31.7467V39.0931C36.9489 39.2452 37.0015 39.3732 37.1065 39.4772C37.2116 39.5813 37.3409 39.6333 37.4945 39.6333C37.648 39.6333 37.7773 39.5813 37.8824 39.4772Z" fill="white"/>
<g filter="url(#filter0_d_9890_10124)">
<path d="M50.7406 22.1003C42.1809 22.1003 35.0879 15.1613 35.0879 6.60156L50.7406 22.1003Z" fill="url(#paint2_linear_9890_10124)"/>
</g>
</g>
<defs>
<filter id="filter0_d_9890_10124" x="12.0879" y="-17.3984" width="65.6526" height="65.5" filterUnits="userSpaceOnUse" color-interpolation-filters="sRGB">
<feFlood flood-opacity="0" result="BackgroundImageFix"/>
<feColorMatrix in="SourceAlpha" type="matrix" values="0 0 0 0 0 0 0 0 0 0 0 0 0 0 0 0 0 0 127 0" result="hardAlpha"/>
<feOffset dx="2" dy="1"/>
<feGaussianBlur stdDeviation="12.5"/>
<feColorMatrix type="matrix" values="0 0 0 0 0 0 0 0 0 0 0 0 0 0 0 0 0 0 0.33 0"/>
<feBlend mode="normal" in2="BackgroundImageFix" result="effect1_dropShadow_9890_10124"/>
<feBlend mode="normal" in="SourceGraphic" in2="effect1_dropShadow_9890_10124" result="shape"/>
</filter>
<linearGradient id="paint0_linear_9890_10124" x1="29.8703" y1="6.60156" x2="29.8703" y2="53.4016" gradientUnits="userSpaceOnUse">
<stop stop-color="#FF7979"/>
<stop offset="1" stop-color="#E85555"/>
</linearGradient>
<linearGradient id="paint1_linear_9890_10124" x1="29.8703" y1="6.60156" x2="29.8703" y2="53.4016" gradientUnits="userSpaceOnUse">
<stop stop-color="#FF7981"/>
<stop offset="1" stop-color="#E85567"/>
</linearGradient>
<linearGradient id="paint2_linear_9890_10124" x1="42.9142" y1="6.60156" x2="42.9142" y2="22.1003" gradientUnits="userSpaceOnUse">
<stop stop-color="#D03954"/>
<stop offset="1" stop-color="#C02A3C"/>
</linearGradient>
</defs>
</svg>
