<svg width="0" height="0" viewBox="0 0 18 18" fill="currentColor" xmlns="http://www.w3.org/2000/svg">
<path d="M1.28571 18C0.921429 18 0.615857 17.8766 0.369 17.6297C0.123 17.3837 0 17.0786 0 16.7143V12.8571C0 12.4929 0.123 12.1873 0.369 11.9404C0.615857 11.6944 0.921429 11.5714 1.28571 11.5714C1.65 11.5714 1.95557 11.6944 2.20243 11.9404C2.44843 12.1873 2.57143 12.4929 2.57143 12.8571V15.4286H5.14286C5.50714 15.4286 5.81271 15.552 6.05957 15.7989C6.30557 16.0449 6.42857 16.35 6.42857 16.7143C6.42857 17.0786 6.30557 17.3837 6.05957 17.6297C5.81271 17.8766 5.50714 18 5.14286 18H1.28571ZM1.28571 6.42857C0.921429 6.42857 0.615857 6.30514 0.369 6.05829C0.123 5.81229 0 5.50714 0 5.14286V1.28571C0 0.921429 0.123 0.615857 0.369 0.369C0.615857 0.123 0.921429 0 1.28571 0H5.14286C5.50714 0 5.81271 0.123 6.05957 0.369C6.30557 0.615857 6.42857 0.921429 6.42857 1.28571C6.42857 1.65 6.30557 1.95557 6.05957 2.20243C5.81271 2.44843 5.50714 2.57143 5.14286 2.57143H2.57143V5.14286C2.57143 5.50714 2.44843 5.81229 2.20243 6.05829C1.95557 6.30514 1.65 6.42857 1.28571 6.42857ZM12.8571 18C12.4929 18 12.1877 17.8766 11.9417 17.6297C11.6949 17.3837 11.5714 17.0786 11.5714 16.7143C11.5714 16.35 11.6949 16.0449 11.9417 15.7989C12.1877 15.552 12.4929 15.4286 12.8571 15.4286H15.4286V12.8571C15.4286 12.4929 15.552 12.1873 15.7989 11.9404C16.0449 11.6944 16.35 11.5714 16.7143 11.5714C17.0786 11.5714 17.3837 11.6944 17.6297 11.9404C17.8766 12.1873 18 12.4929 18 12.8571V16.7143C18 17.0786 17.8766 17.3837 17.6297 17.6297C17.3837 17.8766 17.0786 18 16.7143 18H12.8571ZM16.7143 6.42857C16.35 6.42857 16.0449 6.30514 15.7989 6.05829C15.552 5.81229 15.4286 5.50714 15.4286 5.14286V2.57143H12.8571C12.4929 2.57143 12.1877 2.44843 11.9417 2.20243C11.6949 1.95557 11.5714 1.65 11.5714 1.28571C11.5714 0.921429 11.6949 0.615857 11.9417 0.369C12.1877 0.123 12.4929 0 12.8571 0H16.7143C17.0786 0 17.3837 0.123 17.6297 0.369C17.8766 0.615857 18 0.921429 18 1.28571V5.14286C18 5.50714 17.8766 5.81229 17.6297 6.05829C17.3837 6.30514 17.0786 6.42857 16.7143 6.42857Z" fill="currentColor"/>
</svg>
